<svg width="1200" height="400" viewBox="0 0 1200 400" xmlns="http://www.w3.org/2000/svg">
  <defs>
    <radialGradient id="bgGrad" cx="50%" cy="30%" r="80%">
      <stop offset="0%" stop-color="#2b1f20" />
      <stop offset="60%" stop-color="#0d0a0a" />
      <stop offset="100%" stop-color="#080606" />
    </radialGradient>
    <linearGradient id="goldLine" x1="0%" y1="0%" x2="100%" y2="0%">
      <stop offset="0%" stop-color="#f8d56b" />
      <stop offset="50%" stop-color="#d4af37" />
      <stop offset="100%" stop-color="#f8d56b" />
    </linearGradient>
    <filter id="glow" x="-50%" y="-50%" width="200%" height="200%">
      <feGaussianBlur stdDeviation="10" result="coloredBlur"/>
      <feMerge>
        <feMergeNode in="coloredBlur"/>
        <feMergeNode in="SourceGraphic"/>
      </feMerge>
    </filter>
  </defs>
  <rect width="1200" height="400" fill="url(#bgGrad)" rx="20" ry="20" />
  <g opacity="0.6">
    <circle cx="190" cy="70" r="18" fill="#f8d56b" />
    <circle cx="260" cy="35" r="8" fill="#f8d56b" />
    <circle cx="980" cy="110" r="14" fill="#f8d56b" />
    <circle cx="1120" cy="50" r="6" fill="#f8d56b" />
    <circle cx="890" cy="280" r="20" fill="#f8d56b" />
    <circle cx="600" cy="230" r="9" fill="#f8d56b" />
    <circle cx="370" cy="320" r="5" fill="#f8d56b" />
  </g>
  <path d="M60,90 C220,10 380,10 540,90" stroke="url(#goldLine)" stroke-width="6" fill="none" filter="url(#glow)" opacity="0.8" />
  <path d="M660,90 C820,10 980,10 1140,90" stroke="url(#goldLine)" stroke-width="6" fill="none" filter="url(#glow)" opacity="0.8" />
  <text x="600" y="110" fill="#f5d58f" font-family="'Cormorant Garamond', serif" font-size="72" text-anchor="middle" font-weight="700">Cozy Thrift</text>
  <text x="600" y="160" fill="#f8d56b" font-family="'Cormorant Garamond', serif" font-size="28" text-anchor="middle" font-style="italic">Luxury Looks, Affordable Prices</text>
  <g font-family="'Cormorant Garamond', serif" fill="#f8d56b" font-size="28" text-anchor="middle">
    <text x="600" y="225">• Pajama Trousers</text>
    <text x="600" y="265">• Crop Tops</text>
    <text x="600" y="305">• Leather Mini Skirts</text>
    <text x="600" y="345">• Sweater Vests</text>
  </g>
  <g>
    <text x="900" y="345" fill="#F5A9BC" font-family="'Poppins', sans-serif" font-size="38" font-weight="800" text-anchor="start">WhatsApp</text>
    <text x="900" y="390" fill="#F5A9BC" font-family="'Poppins', sans-serif" font-size="34" font-weight="700" text-anchor="start">0751581762</text>
  </g>
</svg>